<svg width="202" height="130" viewBox="0 0 202 130" fill="none" xmlns="http://www.w3.org/2000/svg">
<path d="M66.2822 86.1607C66.024 85.6678 65.5311 85.3627 64.9677 85.3392C58.8649 85.128 58.7945 81.5602 58.771 81.0203C65.2729 74.9644 65.977 65.2704 60.3437 58.6512C55.1093 52.4545 47.2226 49.497 38.5848 49.4266C26.7313 49.1684 13.0704 56.7499 13 68.9555C13.2817 84.4003 33.3974 91.3951 46.894 87.4517C49.7577 90.4797 52.8325 92.3809 56.7759 92.4279C61.3765 92.5217 67.3619 88.4376 66.2822 86.1607ZM46.7063 76.9596C46.096 77.6168 45.0632 77.6403 44.406 77.03L38.7491 71.5844L33.3036 77.2647C32.6933 77.8985 31.684 77.922 31.0502 77.3351C30.393 76.7249 30.3695 75.6921 30.9798 75.0349L36.4254 69.3546L30.7451 63.909C30.1113 63.2987 30.0879 62.2894 30.6747 61.6556C31.2849 60.9984 32.3177 60.9749 32.9749 61.5852L38.6552 67.0308L44.1008 61.3505C44.7111 60.7167 45.7204 60.6933 46.3542 61.3036C47.0114 61.9138 47.0349 62.9466 46.4246 63.6038L40.979 69.2841L46.6593 74.7297C47.2931 75.3165 47.3165 76.3258 46.7063 76.9596Z" fill="#02121C"/>
<path d="M66.2822 86.1607C66.024 85.6678 65.5311 85.3627 64.9677 85.3392C58.8649 85.128 58.7945 81.5602 58.771 81.0203C65.2729 74.9644 65.977 65.2704 60.3437 58.6512C55.1093 52.4545 47.2226 49.497 38.5848 49.4266C26.7313 49.1684 13.0704 56.7499 13 68.9555C13.2817 84.4003 33.3974 91.3951 46.894 87.4517C49.7577 90.4797 52.8325 92.3809 56.7759 92.4279C61.3765 92.5217 67.3619 88.4376 66.2822 86.1607ZM46.7063 76.9596C46.096 77.6168 45.0632 77.6403 44.406 77.03L38.7491 71.5844L33.3036 77.2647C32.6933 77.8985 31.684 77.922 31.0502 77.3351C30.393 76.7249 30.3695 75.6921 30.9798 75.0349L36.4254 69.3546L30.7451 63.909C30.1113 63.2987 30.0879 62.2894 30.6747 61.6556C31.2849 60.9984 32.3177 60.9749 32.9749 61.5852L38.6552 67.0308L44.1008 61.3505C44.7111 60.7167 45.7204 60.6933 46.3542 61.3036C47.0114 61.9138 47.0349 62.9466 46.4246 63.6038L40.979 69.2841L46.6593 74.7297C47.2931 75.3165 47.3165 76.3258 46.7063 76.9596Z" fill="url(#paint0_linear_131_937)"/>
<path d="M66.2822 86.1607C66.024 85.6678 65.5311 85.3627 64.9677 85.3392C58.8649 85.128 58.7945 81.5602 58.771 81.0203C65.2729 74.9644 65.977 65.2704 60.3437 58.6512C55.1093 52.4545 47.2226 49.497 38.5848 49.4266C26.7313 49.1684 13.0704 56.7499 13 68.9555C13.2817 84.4003 33.3974 91.3951 46.894 87.4517C49.7577 90.4797 52.8325 92.3809 56.7759 92.4279C61.3765 92.5217 67.3619 88.4376 66.2822 86.1607ZM46.7063 76.9596C46.096 77.6168 45.0632 77.6403 44.406 77.03L38.7491 71.5844L33.3036 77.2647C32.6933 77.8985 31.684 77.922 31.0502 77.3351C30.393 76.7249 30.3695 75.6921 30.9798 75.0349L36.4254 69.3546L30.7451 63.909C30.1113 63.2987 30.0879 62.2894 30.6747 61.6556C31.2849 60.9984 32.3177 60.9749 32.9749 61.5852L38.6552 67.0308L44.1008 61.3505C44.7111 60.7167 45.7204 60.6933 46.3542 61.3036C47.0114 61.9138 47.0349 62.9466 46.4246 63.6038L40.979 69.2841L46.6593 74.7297C47.2931 75.3165 47.3165 76.3258 46.7063 76.9596Z" fill="url(#paint1_linear_131_937)"/>
<path d="M46.7077 76.9595C46.0974 77.6167 45.0646 77.6402 44.4074 77.0299L38.7506 71.5843L33.305 77.2646C32.6947 77.8984 31.6854 77.9219 31.0517 77.3351C30.3944 76.7248 30.371 75.692 30.9812 75.0348L36.4268 69.3545L30.7465 63.9089C30.1128 63.2986 30.0893 62.2893 30.6761 61.6555C31.2864 60.9983 32.3192 60.9748 32.9764 61.5851L38.6567 67.0307L44.1023 61.3504C44.7126 60.7167 45.7219 60.6932 46.3556 61.3035C47.0128 61.9137 47.0363 62.9465 46.426 63.6037L40.9805 69.2841L46.6608 74.7296C47.2945 75.3164 47.318 76.3257 46.7077 76.9595Z" fill="#00CEF2"/>
<path d="M73.3488 87.1465C73.3253 87.0761 73.2549 86.8414 73.2549 86.771L73.3488 87.1465Z" fill="#282828"/>
<path d="M76.3528 86.5597C76.3058 86.3954 76.2354 86.1372 76.1885 85.9729L76.3528 86.5597Z" fill="#282828"/>
<path fill-rule="evenodd" clip-rule="evenodd" d="M144.422 49.5674C144.774 49.849 145.079 50.1776 145.384 50.5297C146.863 52.3371 147.45 54.8721 146.98 57.3367L140.971 86.6536C140.267 90.0102 137.709 92.3339 134.751 92.3339H79.4505C78.9106 92.3339 78.3707 92.2635 77.8778 92.1227L79.7087 98.8123H133.179C134.024 98.8123 134.704 99.493 134.704 100.338C134.704 101.183 134.024 101.864 133.179 101.864H78.535C77.8309 101.864 77.2441 101.394 77.0563 100.737L73.3711 87.2639C73.3542 87.2133 73.3131 87.0412 73.2826 86.9136L73.2709 86.8648L73.2606 86.8222L73.2538 86.7945L61.4707 43.7697H49.8284C47.8332 43.7697 47.8332 40.7183 49.8284 40.7183H62.6208C63.325 40.7183 63.9118 41.1877 64.0996 41.845L65.86 48.2529H71.2351L70.977 44.8729C70.6953 41.1877 73.4415 37.972 77.1267 37.6904L82.4784 37.2679C83.6155 37.2166 85.0112 37.0874 86.4759 36.9518C89.0322 36.7153 91.7988 36.4592 93.7686 36.5637C94.024 35.6311 94.2386 34.6321 94.456 33.62C95.5572 28.4932 96.7307 23.0295 103.65 24.1468C107.453 25.0622 115.246 26.94 119.025 27.8554L126.254 29.5924C131.09 30.9773 132.216 35.2962 130.691 39.709C132.334 39.5916 135.244 39.3804 136.911 39.2395C140.596 38.9579 143.812 41.7041 144.093 45.3893L144.422 49.5674ZM130.62 42.7604H130.597L127.569 43.0186L127.874 46.5629C127.921 46.9619 128.179 47.314 128.531 47.5487H133.061C133.176 47.5408 133.304 47.5362 133.438 47.5314C134.103 47.5075 134.948 47.4772 135.338 47.0089C135.596 46.7272 135.714 46.3986 135.69 46.023L135.385 42.4083L132.334 42.6195V42.643L132.498 44.8729L130.808 44.9902L130.62 42.7604ZM116.818 30.4609L112.875 29.4985L111.631 34.6624L115.574 35.6248L116.818 30.4609ZM102.946 27.1043C101.045 26.6349 99.0264 27.8085 98.5569 29.7802L96.6792 37.7138C99.4215 39.4927 99.5894 42.7782 99.7464 45.8498C99.7883 46.6691 99.8294 47.4732 99.9183 48.2294H118.649C117.922 44.3565 120.715 40.4131 124.729 40.1784L127.498 39.9672L128.226 36.9627C128.695 35.0145 127.498 33.0428 125.55 32.5734L119.799 31.1885C119.465 32.5431 119.212 33.6823 119 34.6344L119 34.6352L118.999 34.6371L118.999 34.6378C118.438 37.1659 118.169 38.3737 117.445 38.7904C116.783 39.1715 115.74 38.8906 113.743 38.3527C112.636 38.0548 111.237 37.6781 109.448 37.2913C108.627 37.1035 108.134 36.282 108.321 35.4605L109.918 28.7943L102.946 27.1043ZM84.497 43.488L84.2388 40.1784L81.1874 40.3897L81.563 45.225C81.6334 46.07 82.3845 46.7037 83.206 46.6333C84.6372 46.4738 85.7816 46.4187 86.6915 46.3749C88.2239 46.3011 89.0911 46.2594 89.5428 45.8048C90.1318 45.2119 90.0142 43.9172 89.7432 40.934V40.9339C89.71 40.5674 89.6743 40.1753 89.6375 39.7559L86.5861 39.9906L86.8442 43.3002L84.497 43.488ZM143.882 57.0081C143.929 56.8203 143.952 56.7029 143.952 56.7029C144.398 54.5904 143.553 52.1024 141.511 51.3982C140.843 51.1755 111.596 51.2345 89.9014 51.2783C77.2935 51.3037 67.2365 51.324 66.8224 51.2808C68.1028 54.393 72.1722 70.2916 74.631 79.8975L74.6311 79.8978L74.6311 79.898L74.6313 79.8986L74.6328 79.9045L74.6332 79.9063L74.6335 79.9073C75.4188 82.9755 76.0396 85.4005 76.3521 86.5597C76.8685 88.1793 78.0656 89.2591 79.427 89.2591H134.728C136.23 89.2591 137.544 87.9211 137.943 86.0199C138.065 85.3565 139.975 76.0577 141.597 68.1609L141.599 68.1537L141.602 68.137L141.611 68.092C142.795 62.326 143.823 57.3247 143.882 57.0081ZM94.9172 63.8855C92.3587 64.0029 92.4292 67.735 94.9876 67.7584C97.5461 67.6411 97.4757 63.909 94.9172 63.8855ZM118.298 63.4395C115.74 63.5569 115.81 67.289 118.368 67.3124C120.927 67.1951 120.857 63.4395 118.298 63.4395ZM100.787 76.584C104.331 72.5937 108.838 72.7111 112.5 76.4901C112.735 68.3687 100.271 68.5799 100.787 76.584ZM101.679 114.562C101.42 124.491 86.891 124.467 86.6328 114.562C86.891 104.657 101.42 104.657 101.679 114.562ZM125.856 114.562C125.598 124.491 111.069 124.467 110.811 114.562C111.092 104.657 125.598 104.657 125.856 114.562Z" fill="#02121C"/>
<path fill-rule="evenodd" clip-rule="evenodd" d="M144.422 49.5674C144.774 49.849 145.079 50.1776 145.384 50.5297C146.863 52.3371 147.45 54.8721 146.98 57.3367L140.971 86.6536C140.267 90.0102 137.709 92.3339 134.751 92.3339H79.4505C78.9106 92.3339 78.3707 92.2635 77.8778 92.1227L79.7087 98.8123H133.179C134.024 98.8123 134.704 99.493 134.704 100.338C134.704 101.183 134.024 101.864 133.179 101.864H78.535C77.8309 101.864 77.2441 101.394 77.0563 100.737L73.3711 87.2639C73.3542 87.2133 73.3131 87.0412 73.2826 86.9136L73.2709 86.8648L73.2606 86.8222L73.2538 86.7945L61.4707 43.7697H49.8284C47.8332 43.7697 47.8332 40.7183 49.8284 40.7183H62.6208C63.325 40.7183 63.9118 41.1877 64.0996 41.845L65.86 48.2529H71.2351L70.977 44.8729C70.6953 41.1877 73.4415 37.972 77.1267 37.6904L82.4784 37.2679C83.6155 37.2166 85.0112 37.0874 86.4759 36.9518C89.0322 36.7153 91.7988 36.4592 93.7686 36.5637C94.024 35.6311 94.2386 34.6321 94.456 33.62C95.5572 28.4932 96.7307 23.0295 103.65 24.1468C107.453 25.0622 115.246 26.94 119.025 27.8554L126.254 29.5924C131.09 30.9773 132.216 35.2962 130.691 39.709C132.334 39.5916 135.244 39.3804 136.911 39.2395C140.596 38.9579 143.812 41.7041 144.093 45.3893L144.422 49.5674ZM130.62 42.7604H130.597L127.569 43.0186L127.874 46.5629C127.921 46.9619 128.179 47.314 128.531 47.5487H133.061C133.176 47.5408 133.304 47.5362 133.438 47.5314C134.103 47.5075 134.948 47.4772 135.338 47.0089C135.596 46.7272 135.714 46.3986 135.69 46.023L135.385 42.4083L132.334 42.6195V42.643L132.498 44.8729L130.808 44.9902L130.62 42.7604ZM116.818 30.4609L112.875 29.4985L111.631 34.6624L115.574 35.6248L116.818 30.4609ZM102.946 27.1043C101.045 26.6349 99.0264 27.8085 98.5569 29.7802L96.6792 37.7138C99.4215 39.4927 99.5894 42.7782 99.7464 45.8498C99.7883 46.6691 99.8294 47.4732 99.9183 48.2294H118.649C117.922 44.3565 120.715 40.4131 124.729 40.1784L127.498 39.9672L128.226 36.9627C128.695 35.0145 127.498 33.0428 125.55 32.5734L119.799 31.1885C119.465 32.5431 119.212 33.6823 119 34.6344L119 34.6352L118.999 34.6371L118.999 34.6378C118.438 37.1659 118.169 38.3737 117.445 38.7904C116.783 39.1715 115.74 38.8906 113.743 38.3527C112.636 38.0548 111.237 37.6781 109.448 37.2913C108.627 37.1035 108.134 36.282 108.321 35.4605L109.918 28.7943L102.946 27.1043ZM84.497 43.488L84.2388 40.1784L81.1874 40.3897L81.563 45.225C81.6334 46.07 82.3845 46.7037 83.206 46.6333C84.6372 46.4738 85.7816 46.4187 86.6915 46.3749C88.2239 46.3011 89.0911 46.2594 89.5428 45.8048C90.1318 45.2119 90.0142 43.9172 89.7432 40.934V40.9339C89.71 40.5674 89.6743 40.1753 89.6375 39.7559L86.5861 39.9906L86.8442 43.3002L84.497 43.488ZM143.882 57.0081C143.929 56.8203 143.952 56.7029 143.952 56.7029C144.398 54.5904 143.553 52.1024 141.511 51.3982C140.843 51.1755 111.596 51.2345 89.9014 51.2783C77.2935 51.3037 67.2365 51.324 66.8224 51.2808C68.1028 54.393 72.1722 70.2916 74.631 79.8975L74.6311 79.8978L74.6311 79.898L74.6313 79.8986L74.6328 79.9045L74.6332 79.9063L74.6335 79.9073C75.4188 82.9755 76.0396 85.4005 76.3521 86.5597C76.8685 88.1793 78.0656 89.2591 79.427 89.2591H134.728C136.23 89.2591 137.544 87.9211 137.943 86.0199C138.065 85.3565 139.975 76.0577 141.597 68.1609L141.599 68.1537L141.602 68.137L141.611 68.092C142.795 62.326 143.823 57.3247 143.882 57.0081ZM94.9172 63.8855C92.3587 64.0029 92.4292 67.735 94.9876 67.7584C97.5461 67.6411 97.4757 63.909 94.9172 63.8855ZM118.298 63.4395C115.74 63.5569 115.81 67.289 118.368 67.3124C120.927 67.1951 120.857 63.4395 118.298 63.4395ZM100.787 76.584C104.331 72.5937 108.838 72.7111 112.5 76.4901C112.735 68.3687 100.271 68.5799 100.787 76.584ZM101.679 114.562C101.42 124.491 86.891 124.467 86.6328 114.562C86.891 104.657 101.42 104.657 101.679 114.562ZM125.856 114.562C125.598 124.491 111.069 124.467 110.811 114.562C111.092 104.657 125.598 104.657 125.856 114.562Z" fill="url(#paint2_linear_131_937)"/>
<path fill-rule="evenodd" clip-rule="evenodd" d="M144.422 49.5674C144.774 49.849 145.079 50.1776 145.384 50.5297C146.863 52.3371 147.45 54.8721 146.98 57.3367L140.971 86.6536C140.267 90.0102 137.709 92.3339 134.751 92.3339H79.4505C78.9106 92.3339 78.3707 92.2635 77.8778 92.1227L79.7087 98.8123H133.179C134.024 98.8123 134.704 99.493 134.704 100.338C134.704 101.183 134.024 101.864 133.179 101.864H78.535C77.8309 101.864 77.2441 101.394 77.0563 100.737L73.3711 87.2639C73.3542 87.2133 73.3131 87.0412 73.2826 86.9136L73.2709 86.8648L73.2606 86.8222L73.2538 86.7945L61.4707 43.7697H49.8284C47.8332 43.7697 47.8332 40.7183 49.8284 40.7183H62.6208C63.325 40.7183 63.9118 41.1877 64.0996 41.845L65.86 48.2529H71.2351L70.977 44.8729C70.6953 41.1877 73.4415 37.972 77.1267 37.6904L82.4784 37.2679C83.6155 37.2166 85.0112 37.0874 86.4759 36.9518C89.0322 36.7153 91.7988 36.4592 93.7686 36.5637C94.024 35.6311 94.2386 34.6321 94.456 33.62C95.5572 28.4932 96.7307 23.0295 103.65 24.1468C107.453 25.0622 115.246 26.94 119.025 27.8554L126.254 29.5924C131.09 30.9773 132.216 35.2962 130.691 39.709C132.334 39.5916 135.244 39.3804 136.911 39.2395C140.596 38.9579 143.812 41.7041 144.093 45.3893L144.422 49.5674ZM130.62 42.7604H130.597L127.569 43.0186L127.874 46.5629C127.921 46.9619 128.179 47.314 128.531 47.5487H133.061C133.176 47.5408 133.304 47.5362 133.438 47.5314C134.103 47.5075 134.948 47.4772 135.338 47.0089C135.596 46.7272 135.714 46.3986 135.69 46.023L135.385 42.4083L132.334 42.6195V42.643L132.498 44.8729L130.808 44.9902L130.62 42.7604ZM116.818 30.4609L112.875 29.4985L111.631 34.6624L115.574 35.6248L116.818 30.4609ZM102.946 27.1043C101.045 26.6349 99.0264 27.8085 98.5569 29.7802L96.6792 37.7138C99.4215 39.4927 99.5894 42.7782 99.7464 45.8498C99.7883 46.6691 99.8294 47.4732 99.9183 48.2294H118.649C117.922 44.3565 120.715 40.4131 124.729 40.1784L127.498 39.9672L128.226 36.9627C128.695 35.0145 127.498 33.0428 125.55 32.5734L119.799 31.1885C119.465 32.5431 119.212 33.6823 119 34.6344L119 34.6352L118.999 34.6371L118.999 34.6378C118.438 37.1659 118.169 38.3737 117.445 38.7904C116.783 39.1715 115.74 38.8906 113.743 38.3527C112.636 38.0548 111.237 37.6781 109.448 37.2913C108.627 37.1035 108.134 36.282 108.321 35.4605L109.918 28.7943L102.946 27.1043ZM84.497 43.488L84.2388 40.1784L81.1874 40.3897L81.563 45.225C81.6334 46.07 82.3845 46.7037 83.206 46.6333C84.6372 46.4738 85.7816 46.4187 86.6915 46.3749C88.2239 46.3011 89.0911 46.2594 89.5428 45.8048C90.1318 45.2119 90.0142 43.9172 89.7432 40.934V40.9339C89.71 40.5674 89.6743 40.1753 89.6375 39.7559L86.5861 39.9906L86.8442 43.3002L84.497 43.488ZM143.882 57.0081C143.929 56.8203 143.952 56.7029 143.952 56.7029C144.398 54.5904 143.553 52.1024 141.511 51.3982C140.843 51.1755 111.596 51.2345 89.9014 51.2783C77.2935 51.3037 67.2365 51.324 66.8224 51.2808C68.1028 54.393 72.1722 70.2916 74.631 79.8975L74.6311 79.8978L74.6311 79.898L74.6313 79.8986L74.6328 79.9045L74.6332 79.9063L74.6335 79.9073C75.4188 82.9755 76.0396 85.4005 76.3521 86.5597C76.8685 88.1793 78.0656 89.2591 79.427 89.2591H134.728C136.23 89.2591 137.544 87.9211 137.943 86.0199C138.065 85.3565 139.975 76.0577 141.597 68.1609L141.599 68.1537L141.602 68.137L141.611 68.092C142.795 62.326 143.823 57.3247 143.882 57.0081ZM94.9172 63.8855C92.3587 64.0029 92.4292 67.735 94.9876 67.7584C97.5461 67.6411 97.4757 63.909 94.9172 63.8855ZM118.298 63.4395C115.74 63.5569 115.81 67.289 118.368 67.3124C120.927 67.1951 120.857 63.4395 118.298 63.4395ZM100.787 76.584C104.331 72.5937 108.838 72.7111 112.5 76.4901C112.735 68.3687 100.271 68.5799 100.787 76.584ZM101.679 114.562C101.42 124.491 86.891 124.467 86.6328 114.562C86.891 104.657 101.42 104.657 101.679 114.562ZM125.856 114.562C125.598 124.491 111.069 124.467 110.811 114.562C111.092 104.657 125.598 104.657 125.856 114.562Z" fill="url(#paint3_linear_131_937)"/>
<path d="M168.387 35.2257L164.678 37.127L166.579 40.8356C166.838 41.352 166.65 41.9858 166.11 42.2674C165.594 42.5256 164.96 42.3378 164.678 41.798L162.777 38.0894L159.068 39.9906C158.552 40.2488 157.918 40.061 157.636 39.5446C157.378 39.0282 157.566 38.3945 158.106 38.1128L161.815 36.2116L159.913 32.5029C159.655 31.9865 159.843 31.3528 160.383 31.0711C160.899 30.8129 161.533 31.0007 161.791 31.5171L163.692 35.2257L167.401 33.3245C168.645 32.7377 169.607 34.592 168.387 35.2257Z" fill="#02121C"/>
<path d="M42.4114 106.722C39.9703 106.769 39.9703 110.384 42.4114 110.431C44.8291 110.384 44.8291 106.769 42.4114 106.722Z" fill="#02121C"/>
<path d="M167.518 84.0717C167.495 85.7617 166.11 87.6395 164.162 85.081C161.298 81.2785 156.956 83.2032 156.885 87.3578C156.862 88.7427 158.928 88.8131 158.998 87.4282C159.021 85.5035 160.664 83.9543 162.566 86.4659C165.429 90.2214 169.561 88.2028 169.631 84.1421C169.654 82.7572 167.589 82.6868 167.518 84.0717Z" fill="#00CEF2"/>
<defs>
<linearGradient id="paint0_linear_131_937" x1="29.054" y1="61.3527" x2="17.1743" y2="43.3225" gradientUnits="userSpaceOnUse">
<stop stop-color="#282828" stop-opacity="0.88"/>
<stop offset="1" stop-color="#F8F7F5"/>
</linearGradient>
<linearGradient id="paint1_linear_131_937" x1="39.6909" y1="85.8802" x2="20.875" y2="36.2086" gradientUnits="userSpaceOnUse">
<stop offset="0.544207" stop-color="#282828" stop-opacity="0.51"/>
<stop offset="1" stop-color="#F8F7F5" stop-opacity="0"/>
</linearGradient>
<linearGradient id="paint2_linear_131_937" x1="78.0314" y1="51.1892" x2="49.2032" y2="15.6659" gradientUnits="userSpaceOnUse">
<stop stop-color="#282828" stop-opacity="0.88"/>
<stop offset="1" stop-color="#F8F7F5"/>
</linearGradient>
<linearGradient id="paint3_linear_131_937" x1="97.7093" y1="107.077" x2="48.1201" y2="0.792633" gradientUnits="userSpaceOnUse">
<stop offset="0.544207" stop-color="#282828" stop-opacity="0.51"/>
<stop offset="1" stop-color="#F8F7F5" stop-opacity="0"/>
</linearGradient>
</defs>
</svg>
