<svg width="25" height="22" viewBox="0 0 25 22" fill="none" xmlns="http://www.w3.org/2000/svg">
<path d="M24.375 5.875C23.875 5.3125 23.1875 4.9375 22.4375 4.9375H12.8125C12.5 4.9375 12.1875 5.1875 12.1875 5.5625C12.1875 5.9375 12.5 6.1875 12.8125 6.1875H22.4375C22.8125 6.1875 23.1875 6.375 23.4375 6.625C23.6875 6.9375 23.8125 7.3125 23.6875 7.6875L23.125 10.8125H16.25C15.9375 10.8125 15.625 11.0625 15.625 11.4375C15.625 11.8125 15.9375 12.0625 16.25 12.0625H22.9375L22.375 15.0625C22.3125 15.5 21.875 15.8125 21.4375 15.8125H9.4375C9 15.8125 8.625 15.5 8.5 15.0625L6.0625 1.5C6 1.1875 5.75 1 5.4375 1H0.625C0.3125 1 0 1.25 0 1.625C0 2 0.3125 2.25 0.625 2.25H4.9375L7.3125 15.375C7.4375 16.25 8.0625 16.875 8.875 17.125C8.5625 17.5625 8.3125 18.125 8.3125 18.75C8.3125 20.3125 9.5625 21.5625 11.125 21.5625C12.6875 21.5625 13.9375 20.3125 13.9375 18.75C13.9375 18.1875 13.75 17.625 13.4375 17.1875H17.25C16.9375 17.625 16.75 18.1875 16.75 18.75C16.75 20.3125 18 21.5625 19.5625 21.5625C21.125 21.5625 22.375 20.3125 22.375 18.75C22.375 18.125 22.1875 17.5625 21.875 17.125C22.6875 16.9375 23.375 16.25 23.5625 15.375L24.9375 8C25.0625 7.25 24.875 6.5 24.375 5.875ZM12.6875 18.6875C12.6875 19.5625 12 20.25 11.125 20.25C10.25 20.25 9.5625 19.5625 9.5625 18.6875C9.5625 17.8125 10.25 17.125 11.125 17.125C12 17.125 12.6875 17.8125 12.6875 18.6875ZM19.625 20.25C18.75 20.25 18.0625 19.5625 18.0625 18.6875C18.0625 17.8125 18.75 17.125 19.625 17.125C20.5 17.125 21.1875 17.8125 21.1875 18.6875C21.1875 19.5625 20.5 20.25 19.625 20.25Z" fill="#02121C" stroke="#02121C" stroke-width="0.5"/>
</svg>
