<svg width="18" height="18" viewBox="0 0 18 18" fill="none" xmlns="http://www.w3.org/2000/svg">
<path d="M6.71429 1H2.14286C1.51276 1 1 1.51276 1 2.14286V6.71429C1 7.34438 1.51276 7.85714 2.14286 7.85714H6.71429C7.34438 7.85714 7.85714 7.34438 7.85714 6.71429V2.14286C7.85714 1.51276 7.34438 1 6.71429 1ZM7.09524 6.71429C7.09524 6.92419 6.92457 7.09524 6.71429 7.09524H2.14286C1.93257 7.09524 1.7619 6.92419 1.7619 6.71429V2.14286C1.7619 1.93295 1.93257 1.7619 2.14286 1.7619H6.71429C6.92457 1.7619 7.09524 1.93295 7.09524 2.14286V6.71429Z" fill="white" stroke="white" stroke-width="0.5"/>
<path d="M6.71429 10.1429H2.14286C1.51276 10.1429 1 10.6556 1 11.2857V15.8571C1 16.4872 1.51276 17 2.14286 17H6.71429C7.34438 17 7.85714 16.4872 7.85714 15.8571V11.2857C7.85714 10.6556 7.34438 10.1429 6.71429 10.1429ZM7.09524 15.8571C7.09524 16.0674 6.92457 16.2381 6.71429 16.2381H2.14286C1.93257 16.2381 1.7619 16.0674 1.7619 15.8571V11.2857C1.7619 11.0754 1.93257 10.9048 2.14286 10.9048H6.71429C6.92457 10.9048 7.09524 11.0754 7.09524 11.2857V15.8571Z" fill="white" stroke="white" stroke-width="0.5"/>
<path d="M15.8572 1H11.2857C10.6556 1 10.1429 1.51276 10.1429 2.14286V6.71429C10.1429 7.34438 10.6556 7.85714 11.2857 7.85714H15.8572C16.4873 7.85714 17 7.34438 17 6.71429V2.14286C17 1.51276 16.4873 1 15.8572 1ZM16.2381 6.71429C16.2381 6.92419 16.0675 7.09524 15.8572 7.09524H11.2857C11.0755 7.09524 10.9048 6.92419 10.9048 6.71429V2.14286C10.9048 1.93295 11.0755 1.7619 11.2857 1.7619H15.8572C16.0675 1.7619 16.2381 1.93295 16.2381 2.14286V6.71429Z" fill="white" stroke="white" stroke-width="0.5"/>
<path d="M15.8571 10.1429H11.2857C10.6556 10.1429 10.1428 10.6556 10.1428 11.2857V15.8571C10.1428 16.4872 10.6556 17 11.2857 17H15.8571C16.4872 17 17 16.4872 17 15.8571V11.2857C17 10.6556 16.4872 10.1429 15.8571 10.1429ZM16.2381 15.8571C16.2381 16.0674 16.0674 16.2381 15.8571 16.2381H11.2857C11.0754 16.2381 10.9047 16.0674 10.9047 15.8571V11.2857C10.9047 11.0754 11.0754 10.9048 11.2857 10.9048H15.8571C16.0674 10.9048 16.2381 11.0754 16.2381 11.2857V15.8571Z" fill="white" stroke="white" stroke-width="0.5"/>
</svg>
