<svg width="21" height="22" viewBox="0 0 21 22" fill="none" xmlns="http://www.w3.org/2000/svg">
<path  fill-rule="evenodd" clip-rule="evenodd" d="M11.7168 14.2915C12.9208 14.2915 13.9008 15.2645 13.9008 16.4605V19.5365C13.9008 19.7935 14.1068 19.9995 14.3708 20.0055H16.2768C17.7788 20.0055 18.9998 18.7995 18.9998 17.3175V8.59349C18.9928 8.08349 18.7498 7.60349 18.3328 7.28449L11.7398 2.02649C10.8548 1.32549 9.61676 1.32549 8.72876 2.02849L2.18076 7.28249C1.74776 7.61149 1.50476 8.09149 1.49976 8.61049V17.3175C1.49976 18.7995 2.72076 20.0055 4.22276 20.0055H6.14676C6.41776 20.0055 6.63776 19.7905 6.63776 19.5265C6.63776 19.4685 6.64476 19.4105 6.65676 19.3555V16.4605C6.65676 15.2715 7.63076 14.2995 8.82576 14.2915H11.7168ZM16.2768 21.5055H14.3528C13.2508 21.4795 12.4008 20.6145 12.4008 19.5365V16.4605C12.4008 16.0915 12.0938 15.7915 11.7168 15.7915H8.83076C8.46176 15.7935 8.15676 16.0945 8.15676 16.4605V19.5265C8.15676 19.6015 8.14676 19.6735 8.12576 19.7415C8.01776 20.7315 7.17176 21.5055 6.14676 21.5055H4.22276C1.89376 21.5055 -0.000244141 19.6265 -0.000244141 17.3175V8.60349C0.00975586 7.60949 0.467756 6.69949 1.25876 6.10049L7.79376 0.855494C9.23276 -0.284506 11.2378 -0.284506 12.6738 0.853494L19.2558 6.10349C20.0288 6.69249 20.4868 7.60049 20.4998 8.58249V17.3175C20.4998 19.6265 18.6058 21.5055 16.2768 21.5055Z" fill="#02121C"/>
</svg>
