<svg width="16" height="13" viewBox="0 0 16 13" fill="none" xmlns="http://www.w3.org/2000/svg">
<path fill-rule="evenodd" clip-rule="evenodd" d="M0.5 0.75C0.5 0.335786 0.835786 0 1.25 0H10.25C10.6642 0 11 0.335786 11 0.75V1.61466L13.6199 2.05131C14.7048 2.23213 15.5 3.17081 15.5 4.2707V10.5C15.5 11.7426 14.4926 12.75 13.25 12.75C12.5836 12.75 11.9849 12.4603 11.5729 12H4.42708C4.01509 12.4603 3.41637 12.75 2.75 12.75C1.50736 12.75 0.5 11.7426 0.5 10.5V0.75ZM9.5 1.5V8.25H2.75C2.48702 8.25 2.23458 8.29512 2 8.37803V1.5H9.5ZM2.75 11.25C2.33579 11.25 2 10.9142 2 10.5C2 10.0858 2.33579 9.75 2.75 9.75C3.16421 9.75 3.5 10.0858 3.5 10.5C3.5 10.9142 3.16421 11.25 2.75 11.25ZM14 5.25V4.2707C14 3.90407 13.7349 3.59117 13.3733 3.5309L11 3.13535V8.25H13.25C13.513 8.25 13.7654 8.29512 14 8.37803V6.75H12.5V5.25H14ZM14 10.5C14 10.0858 13.6642 9.75 13.25 9.75C12.8358 9.75 12.5 10.0858 12.5 10.5C12.5 10.9142 12.8358 11.25 13.25 11.25C13.6642 11.25 14 10.9142 14 10.5ZM5 10.5C5 10.237 4.95488 9.98458 4.87197 9.75H11.128C11.0451 9.98458 11 10.237 11 10.5H5Z" fill="#02121C"/>
</svg>
