<svg width="16" height="12" viewBox="0 0 16 12" fill="none" xmlns="http://www.w3.org/2000/svg">
<path fill-rule="evenodd" clip-rule="evenodd" d="M2.61583 0.909121C2.8522 0.357595 3.3945 0 3.99455 0H9.03647C9.60463 0 10.124 0.321003 10.3781 0.829179L12.2666 4.60606L14.3638 5.13037C15.0316 5.29731 15.5 5.89728 15.5 6.58558V9C15.5 9.58708 15.1627 10.0954 14.6714 10.3417C14.4116 11.2973 13.5379 12 12.5 12C11.5203 12 10.6869 11.3739 10.378 10.5L5.62197 10.5C5.31309 11.3739 4.47966 12 3.5 12C2.46214 12 1.58841 11.2973 1.32862 10.3417C0.83727 10.0954 0.5 9.58708 0.5 9V6.15394C0.5 5.9508 0.541262 5.74978 0.621282 5.56306L2.61583 0.909121ZM2 8.07292C2.39807 7.71664 2.92373 7.5 3.5 7.5C4.47966 7.5 5.31309 8.12611 5.62197 9L10.378 9C10.6869 8.12611 11.5203 7.5 12.5 7.5C13.0763 7.5 13.6019 7.71664 14 8.07292V6.58558L11.9028 6.06127C11.8376 6.04499 11.7741 6.02448 11.7125 6H2.06598L2 6.15394V8.07292ZM9.03647 1.5L10.5365 4.5H8V1.5H9.03647ZM3.99455 1.5H6.5V4.5H2.70883L3.99455 1.5ZM12.5 9C12.0858 9 11.75 9.33579 11.75 9.75C11.75 10.1642 12.0858 10.5 12.5 10.5C12.9142 10.5 13.25 10.1642 13.25 9.75C13.25 9.33579 12.9142 9 12.5 9ZM2.75 9.75C2.75 9.33579 3.08579 9 3.5 9C3.91421 9 4.25 9.33579 4.25 9.75C4.25 10.1642 3.91421 10.5 3.5 10.5C3.08579 10.5 2.75 10.1642 2.75 9.75Z" fill="#1B1B1B"/>
</svg>
