<svg width="16" height="13" viewBox="0 0 16 13" fill="none" xmlns="http://www.w3.org/2000/svg">
<path fill-rule="evenodd" clip-rule="evenodd" d="M2.1119 0.91459C2.23894 0.660502 2.49864 0.5 2.78272 0.5H4.99985V2H3.24624L2.49624 3.5H13.5692L12.8192 2H4.99985V0.5H13.2827C13.5668 0.5 13.8265 0.660502 13.9535 0.91459L15.4535 3.91459C15.5698 4.14708 15.5574 4.42319 15.4207 4.6443C15.2841 4.86541 15.0426 5 14.7827 5H1.28272C1.02278 5 0.781383 4.86541 0.644728 4.6443C0.508073 4.42319 0.49565 4.14708 0.611895 3.91459L2.1119 0.91459Z" fill="#02121C"/>
<path fill-rule="evenodd" clip-rule="evenodd" d="M1.24988 11.75V6.5H2.74988V11H4.24988L4.24988 7.25C4.24988 6.83579 4.58567 6.5 4.99988 6.5H10.9999C11.4141 6.5 11.7499 6.83579 11.7499 7.25L11.7499 11H13.2499V6.5H14.7499V11.75C14.7499 12.1642 14.4141 12.5 13.9999 12.5H1.99988C1.58567 12.5 1.24988 12.1642 1.24988 11.75ZM7.24988 11H5.74988L5.74988 8H7.24988V11ZM8.74988 11H10.2499L10.2499 8H8.74988V11Z" fill="#02121C"/>
</svg>
